PathFileType	4	(X/Y/Z)	Patient4_TMGait_0pt7_02_right_24.trc.trc
DataRate	CameraRate	NumFrames	NumMarkers	Units	OrigDataRate	OrigDataStartFrame	OrigNumFrames
86.956521739130	86.956521739130	4	33	mm	86.956521739130	53	       141
Frame#	Time	Sacral			L.Shoulder			Chest			R.Shoulder			Neck			R.ASIS			L.ASIS			R.Thigh.Superior			R.Thigh.Lateral			R.Thigh.Inferior			R.Patella			L.Thigh.Superior			L.Thigh.Lateral			L.Thigh.Inferior			L.Patella			L.Shank.Superior			L.Shank.Lateral			L.Shank.Inferior			R.Shank.Superior			R.Shank.Lateral			R.Shank.Inferior			R.Heel			R.Midfoot.Superior			R.Midfoot.Lateral			R.Toe			L.Heel			L.Midfoot.Lateral			L.Midfoot.Superior			L.Toe			L.Elbow			L.Wrist			R.Elbow			R.Wrist			
		X1	Y1	Z1	X2	Y2	Z2	X3	Y3	Z3	X4	Y4	Z4	X5	Y5	Z5	X6	Y6	Z6	X7	Y7	Z7	X8	Y8	Z8	X9	Y9	Z9	X10	Y10	Z10	X11	Y11	Z11	X12	Y12	Z12	X13	Y13	Z13	X14	Y14	Z14	X15	Y15	Z15	X16	Y16	Z16	X17	Y17	Z17	X18	Y18	Z18	X19	Y19	Z19	X20	Y20	Z20	X21	Y21	Z21	X22	Y22	Z22	X23	Y23	Z23	X24	Y24	Z24	X25	Y25	Z25	X26	Y26	Z26	X27	Y27	Z27	X28	Y28	Z28	X29	Y29	Z29	X30	Y30	Z30	X31	Y31	Z31	X32	Y32	Z32	X33	Y33	Z33	

53	27.328000000000	830.354258614861	1018.601410524706	527.906178595838	1007.626624863848	1425.404293691838	310.379956345498	1130.802151447216	1353.335787028247	457.252059471992	1080.688316071665	1440.457481217208	637.962025517045	1037.158302825680	1492.439464406558	460.957385495381	1063.377710411343	944.470829309008	623.963812959239	1023.081806319431	958.679294288449	352.512065139292	1087.421340733691	739.116928160080	601.457033411915	997.685223436490	637.126366921578	662.735642791230	1068.886668185464	579.144460513936	581.963751934709	1062.011203342597	493.152110287595	588.005882171525	1116.351698073031	796.641551313995	376.448879622326	1080.478159208496	668.804977240215	295.670446792212	1195.260635053787	616.435125710024	348.980856786444	1217.889864641596	528.534298789645	338.653397719943	1157.930816681857	455.359055267412	334.537290364112	1019.223908694633	397.686817192800	294.670996559576	1026.131567771049	267.402333828798	346.829983977025	1033.254723453093	406.096154661253	594.312070057730	958.795863814772	303.675277642252	653.769697706699	1000.876278064763	208.246169826141	590.250551878313	863.929795125182	44.561789198003	555.573395221029	1035.299579388760	96.898050702334	594.245403180369	946.172737331525	37.023306315948	630.614148743932	1154.771062440747	41.535764589741	623.307191288073	848.342470568700	177.711547368654	394.861735617553	905.564841181415	144.203232738995	308.594517285828	1010.025043367975	164.509613654071	324.120586636893	1098.733545107303	64.572263694949	284.641515069406	944.197247643151	1072.089509421109	216.087324416848	1051.695140335506	834.007689576418	220.827324599257	1085.661192085036	1097.712468261744	780.388561512843	1258.975077232476	907.533289533091	738.626711227624	
54	27.339500000000	828.403134529296	1018.589633174106	528.513647233368	1005.525129751472	1424.430310427376	309.899600445894	1129.631593087123	1352.279182866757	455.931899201305	1081.201540047775	1439.801564372408	636.960385432257	1036.471014568221	1491.695005474913	460.133849466613	1061.775389854167	943.783973951002	623.319072066723	1020.121453617782	958.428883232650	352.086141615478	1083.699326167866	737.973229464059	600.062733617090	993.853712751500	636.603145581073	662.248515817271	1063.783103922323	578.079226990267	580.957192078578	1056.137611580836	492.253249526940	587.005888558441	1115.218692139293	799.738417758216	376.989126507104	1082.696568469126	671.422729365463	295.544011122797	1197.746238921814	621.052867407269	349.888481490811	1222.663901086596	534.146653082610	339.158197448873	1165.730117719133	459.336635673408	334.132219141201	1030.164819605312	395.358031525169	293.145215522274	1043.291299105383	265.022669074961	344.510807732094	1026.938202788976	405.312330763696	593.569353557341	952.230280971996	303.284613914594	653.424568224165	993.429322005867	207.658117708125	589.719166103000	855.735940135428	44.239352915302	555.596823301272	1027.021476328537	96.823931019817	594.089791098023	937.985636824413	36.942976193707	630.682245123289	1146.583325814977	41.678115991015	623.296331964434	869.976373549559	166.412068650587	391.140912304321	929.113262595964	136.195885328994	304.962065211066	1032.450610201220	161.449852842374	321.129746599233	1126.138817589978	66.109873897633	281.550182165606	935.132644810595	1071.252219921180	219.513012214941	1024.232700673224	826.028610647279	223.954346449323	1096.932112798761	1097.764254336066	779.515859746374	1282.008987729419	920.850275217592	732.533045884161	
55	27.351000000000	826.555416997970	1018.466329381812	528.923764654018	1003.454495757566	1423.439862015466	309.319010595488	1128.479050487128	1351.186085143531	454.497756028207	1081.691898315533	1439.051059159384	635.856909325508	1035.753700693848	1490.884228985775	459.232717841167	1060.259698001305	943.033037142138	622.520334534654	1017.334891310357	958.036116547039	351.463382782638	1079.998855248816	736.771753737316	598.550545197977	990.018189238767	636.050852797420	661.693865124858	1058.608458070696	576.983166462890	579.875195445350	1050.194561572012	491.332596169764	585.966510133561	1113.842455892877	802.306785852724	377.529017243848	1084.508045367260	673.633115865608	295.402776529482	1199.514734352078	624.970047789089	350.969744679526	1226.569913780597	539.199316955343	339.841594726814	1172.808038753122	462.945034681929	333.857602985007	1040.964261546078	392.582604420378	291.465381236848	1060.443547536570	262.529737046579	342.164103459681	1020.559808644339	404.501100030030	592.803847708555	945.629494210644	302.856833486144	653.081736196816	985.921898363369	207.051721078921	589.183669643431	847.533541744419	43.904361442115	555.629165991823	1018.716819515428	96.742443895907	593.921760628894	929.789372246867	36.855456894058	630.754787396389	1138.385898606312	41.842260733318	623.262563491484	892.187942156765	154.940877201853	387.071795443361	953.302131372459	128.221554713829	301.149134395524	1055.152402956175	158.504306875827	318.190923584146	1153.785860156693	68.111376133625	278.812963201751	926.292598985913	1070.617420730288	222.712447850882	996.922476926081	819.846976690129	227.293437472578	1108.038630343498	1098.146788109101	778.344236147097	1303.998848039429	935.680134941907	725.881279764825	
56	27.362500000000	824.842772904793	1018.246486307060	529.136087614371	1001.438785810149	1422.459557161942	308.627519835011	1127.355372269029	1350.079935402434	452.947528729663	1082.155646903512	1438.233510469756	634.646056468198	1035.024294275302	1490.031635158694	458.246661332894	1058.850562794906	942.250269789476	621.587899562706	1014.755815940036	957.510972208642	350.657988408183	1076.374771931101	735.540601891266	596.968588114845	986.195306675033	635.494373258244	661.092520503162	1053.393156547742	575.883053131386	578.751558241853	1044.208731329959	490.414210005198	584.916583771864	1112.256621626086	804.302944223838	378.028337580293	1085.852436402541	675.375056561476	295.221317287171	1200.557764111299	628.105956632783	352.121571400945	1229.584599994113	543.608991222852	340.634847859294	1179.107677388829	466.127825230483	333.712784842063	1051.590047743537	389.402568676953	289.617450464778	1077.437963514249	260.009206299582	339.858925165310	1014.140549138584	403.685428230521	592.033668054551	939.011336579839	302.420198918251	652.758657429376	978.374297842686	206.452073529817	588.661974420010	839.327548277195	43.584118263123	555.676725624052	1010.401401886057	96.658532248181	593.752610279033	921.589581412477	36.766499564358	630.830433883895	1130.184508355977	42.017147998651	623.211690090082	914.804256339261	143.508789229268	382.707835353174	977.971407532414	120.452760972280	297.260677001503	1077.934382324394	155.798833264564	315.426737756295	1181.421452536847	70.697624275013	276.660244509235	917.634879996575	1070.224495428137	225.647559888061	970.075756166296	815.455223998530	230.806239259697	1118.944077508158	1098.861640120295	776.847442260419	1324.742604281415	951.950998314720	718.709506828750	
